<svg xmlns="http://www.w3.org/2000/svg" viewBox="0 0 1200 300">
  <defs>
    <style>
      @import url('https://fonts.googleapis.com/css2?family=Inter:wght@400;600;700&amp;family=JetBrains+Mono:wght@400;600&amp;display=swap');
    </style>
  </defs>
  
  <!-- Background: weba0 warm white -->
  <rect width="1200" height="300" fill="#F7F4EE"/>
  
  <!-- Subtle border bottom -->
  <line x1="0" y1="299" x2="1200" y2="299" stroke="#E6E1D9" stroke-width="1"/>
  
  <!-- Subtle grid pattern -->
  <g opacity="0.04">
    <line x1="0" y1="60" x2="1200" y2="60" stroke="#18160F" stroke-width="1"/>
    <line x1="0" y1="120" x2="1200" y2="120" stroke="#18160F" stroke-width="1"/>
    <line x1="0" y1="180" x2="1200" y2="180" stroke="#18160F" stroke-width="1"/>
    <line x1="0" y1="240" x2="1200" y2="240" stroke="#18160F" stroke-width="1"/>
  </g>
  
  <!-- Logo mark (black version, matching weba0 original) -->
  <g transform="translate(80, 100) scale(3)">
    <rect width="32" height="32" rx="7" fill="#18160F"/>
    <polygon points="0,0 20,0 20,12 28,12 28,20 32,20 32,32 12,32 12,20 4,20 4,12 0,12" fill="#F7F4EE"/>
  </g>

  <!-- ATLAST Protocol text -->
  <text x="210" y="132" fill="#18160F" font-family="Inter, sans-serif" font-weight="700" font-size="42" letter-spacing="0.02em">ATLAST Protocol</text>
  
  <!-- Tagline -->
  <text x="210" y="172" fill="#6B7280" font-family="Inter, sans-serif" font-weight="400" font-size="22">Make AI Agent Work Verifiable.</text>
  
  <!-- Badges -->
  <g transform="translate(210, 195)">
    <!-- ECP badge -->
    <rect x="0" y="0" width="78" height="24" rx="4" fill="#18160F" opacity="0.08"/>
    <text x="39" y="16" fill="#18160F" font-family="JetBrains Mono, monospace" font-weight="600" font-size="11" text-anchor="middle">ECP v1.0</text>
    
    <!-- Open Source badge -->
    <rect x="88" y="0" width="100" height="24" rx="4" fill="#059669" opacity="0.12"/>
    <text x="138" y="16" fill="#059669" font-family="JetBrains Mono, monospace" font-weight="600" font-size="11" text-anchor="middle">Open Source</text>
    
    <!-- MIT badge -->
    <rect x="198" y="0" width="45" height="24" rx="4" fill="#18160F" opacity="0.06"/>
    <text x="220" y="16" fill="#6B7280" font-family="JetBrains Mono, monospace" font-weight="600" font-size="11" text-anchor="middle">MIT</text>
  </g>
  
  <!-- Right side: abstract evidence chain visualization -->
  <g transform="translate(820, 60)" opacity="0.08">
    <!-- Chain nodes -->
    <circle cx="20" cy="20" r="12" fill="none" stroke="#18160F" stroke-width="2.5"/>
    <circle cx="20" cy="20" r="4" fill="#18160F"/>
    <line x1="32" y1="20" x2="68" y2="60" stroke="#18160F" stroke-width="2"/>
    
    <circle cx="80" cy="68" r="12" fill="none" stroke="#18160F" stroke-width="2.5"/>
    <circle cx="80" cy="68" r="4" fill="#18160F"/>
    <line x1="92" y1="68" x2="128" y2="38" stroke="#18160F" stroke-width="2"/>
    
    <circle cx="140" cy="30" r="12" fill="none" stroke="#18160F" stroke-width="2.5"/>
    <circle cx="140" cy="30" r="4" fill="#18160F"/>
    <line x1="152" y1="30" x2="188" y2="80" stroke="#18160F" stroke-width="2"/>
    
    <circle cx="200" cy="88" r="12" fill="none" stroke="#18160F" stroke-width="2.5"/>
    <circle cx="200" cy="88" r="4" fill="#18160F"/>
    <line x1="212" y1="88" x2="248" y2="48" stroke="#18160F" stroke-width="2"/>
    
    <circle cx="260" cy="40" r="12" fill="none" stroke="#18160F" stroke-width="2.5"/>
    <circle cx="260" cy="40" r="4" fill="#18160F"/>
    
    <!-- Second layer -->
    <circle cx="50" cy="130" r="8" fill="none" stroke="#18160F" stroke-width="1.5"/>
    <line x1="58" y1="130" x2="112" y2="110" stroke="#18160F" stroke-width="1.5"/>
    <circle cx="120" cy="106" r="8" fill="none" stroke="#18160F" stroke-width="1.5"/>
    <line x1="128" y1="106" x2="182" y2="140" stroke="#18160F" stroke-width="1.5"/>
    <circle cx="190" cy="144" r="8" fill="none" stroke="#18160F" stroke-width="1.5"/>
    <line x1="198" y1="144" x2="242" y2="120" stroke="#18160F" stroke-width="1.5"/>
    <circle cx="250" cy="116" r="8" fill="none" stroke="#18160F" stroke-width="1.5"/>
  </g>
</svg>
